<mxfile host="app.diagrams.net" agent="Mozilla/5.0 (Windows NT 10.0; Win64; x64) AppleWebKit/537.36 (KHTML, like Gecko) Chrome/134.0.0.0 Safari/537.36" version="26.0.16">
  <diagram id="7gcUSTIZ7YSJ5vT40chW" name="Page-1">
    <mxGraphModel dx="1434" dy="738" grid="0" gridSize="10" guides="1" tooltips="1" connect="1" arrows="1" fold="1" page="1" pageScale="1" pageWidth="1169" pageHeight="827" math="0" shadow="0">
      <root>
        <mxCell id="0" />
        <mxCell id="1" parent="0" />
        <mxCell id="bG1ii8NIkGVzYORhIeiv-28" value="" style="rounded=0;whiteSpace=wrap;html=1;fillColor=#CCCCCC;" vertex="1" parent="1">
          <mxGeometry x="1030" y="150.5" width="120" height="479.5" as="geometry" />
        </mxCell>
        <mxCell id="bG1ii8NIkGVzYORhIeiv-13" value="" style="rounded=0;whiteSpace=wrap;html=1;fillColor=#CCCCCC;" vertex="1" parent="1">
          <mxGeometry x="520" y="150.5" width="120" height="479.5" as="geometry" />
        </mxCell>
        <mxCell id="bG1ii8NIkGVzYORhIeiv-9" value="" style="rounded=0;whiteSpace=wrap;html=1;fillColor=#CCCCCC;" vertex="1" parent="1">
          <mxGeometry x="328" y="440" width="120" height="190" as="geometry" />
        </mxCell>
        <mxCell id="bG1ii8NIkGVzYORhIeiv-7" value="" style="rounded=0;whiteSpace=wrap;html=1;fillColor=#CCCCCC;" vertex="1" parent="1">
          <mxGeometry x="328" y="150.5" width="120" height="190" as="geometry" />
        </mxCell>
        <mxCell id="bG1ii8NIkGVzYORhIeiv-6" value="" style="rounded=0;whiteSpace=wrap;html=1;fillColor=#CCCCCC;" vertex="1" parent="1">
          <mxGeometry x="130" y="150.5" width="120" height="190" as="geometry" />
        </mxCell>
        <mxCell id="SZY12_XKgGBlkoAp8IEY-12" style="edgeStyle=orthogonalEdgeStyle;rounded=0;orthogonalLoop=1;jettySize=auto;html=1;strokeColor=#808080;strokeWidth=3;" parent="1" edge="1">
          <mxGeometry relative="1" as="geometry">
            <mxPoint x="250" y="246" as="sourcePoint" />
            <mxPoint x="330" y="246" as="targetPoint" />
          </mxGeometry>
        </mxCell>
        <mxCell id="SZY12_XKgGBlkoAp8IEY-14" style="edgeStyle=orthogonalEdgeStyle;rounded=0;orthogonalLoop=1;jettySize=auto;html=1;entryX=0;entryY=0.479;entryDx=0;entryDy=0;entryPerimeter=0;strokeColor=#808080;strokeWidth=3;" parent="1" target="bG1ii8NIkGVzYORhIeiv-13" edge="1">
          <mxGeometry relative="1" as="geometry">
            <mxPoint x="450" y="540" as="sourcePoint" />
            <mxPoint x="881.6500000000001" y="235.14999999999998" as="targetPoint" />
          </mxGeometry>
        </mxCell>
        <mxCell id="SZY12_XKgGBlkoAp8IEY-2" value="" style="aspect=fixed;html=1;perimeter=none;align=center;shadow=0;dashed=0;image;fontSize=12;image=img/lib/mscae/Databricks.svg;" parent="1" vertex="1">
          <mxGeometry x="556.25" y="330" width="47.5" height="50" as="geometry" />
        </mxCell>
        <mxCell id="bG1ii8NIkGVzYORhIeiv-1" value="" style="image;aspect=fixed;perimeter=ellipsePerimeter;html=1;align=center;shadow=0;dashed=0;fontColor=#4277BB;labelBackgroundColor=default;fontSize=12;spacingTop=3;image=img/lib/ibm/data/data_sources.svg;" vertex="1" parent="1">
          <mxGeometry x="160" y="220.5" width="60" height="60" as="geometry" />
        </mxCell>
        <mxCell id="bG1ii8NIkGVzYORhIeiv-2" value="data source" style="whiteSpace=wrap;html=1;strokeColor=none;opacity=0;" vertex="1" parent="1">
          <mxGeometry x="150" y="160" width="80" height="40" as="geometry" />
        </mxCell>
        <mxCell id="bG1ii8NIkGVzYORhIeiv-3" value="" style="image;aspect=fixed;html=1;points=[];align=center;fontSize=12;image=img/lib/azure2/databases/Data_Factory.svg;" vertex="1" parent="1">
          <mxGeometry x="360" y="202.5" width="68" height="68" as="geometry" />
        </mxCell>
        <mxCell id="bG1ii8NIkGVzYORhIeiv-4" value="" style="image;sketch=0;aspect=fixed;html=1;points=[];align=center;fontSize=12;image=img/lib/mscae/Data_Lake.svg;" vertex="1" parent="1">
          <mxGeometry x="370" y="520" width="38" height="50" as="geometry" />
        </mxCell>
        <mxCell id="bG1ii8NIkGVzYORhIeiv-12" style="edgeStyle=orthogonalEdgeStyle;rounded=0;orthogonalLoop=1;jettySize=auto;html=1;entryX=0.5;entryY=0;entryDx=0;entryDy=0;strokeWidth=3;strokeColor=#999999;" edge="1" parent="1" target="bG1ii8NIkGVzYORhIeiv-9">
          <mxGeometry relative="1" as="geometry">
            <mxPoint x="388" y="340" as="sourcePoint" />
          </mxGeometry>
        </mxCell>
        <mxCell id="bG1ii8NIkGVzYORhIeiv-5" value="data factory" style="whiteSpace=wrap;html=1;strokeColor=none;opacity=0;" vertex="1" parent="1">
          <mxGeometry x="349" y="280.5" width="80" height="40" as="geometry" />
        </mxCell>
        <mxCell id="bG1ii8NIkGVzYORhIeiv-8" value="data integestion" style="whiteSpace=wrap;html=1;strokeColor=none;opacity=0;" vertex="1" parent="1">
          <mxGeometry x="348" y="160" width="80" height="40" as="geometry" />
        </mxCell>
        <mxCell id="bG1ii8NIkGVzYORhIeiv-10" value="Data Lake Gen 2" style="whiteSpace=wrap;html=1;strokeColor=none;opacity=0;" vertex="1" parent="1">
          <mxGeometry x="349" y="570" width="80" height="40" as="geometry" />
        </mxCell>
        <mxCell id="bG1ii8NIkGVzYORhIeiv-11" value="Raw Data Store" style="whiteSpace=wrap;html=1;strokeColor=none;opacity=0;" vertex="1" parent="1">
          <mxGeometry x="348" y="449.5" width="80" height="40" as="geometry" />
        </mxCell>
        <mxCell id="bG1ii8NIkGVzYORhIeiv-14" value="Azure Databricks" style="whiteSpace=wrap;html=1;strokeColor=none;opacity=0;" vertex="1" parent="1">
          <mxGeometry x="540" y="409.5" width="80" height="40" as="geometry" />
        </mxCell>
        <mxCell id="bG1ii8NIkGVzYORhIeiv-15" value="Transformation" style="whiteSpace=wrap;html=1;strokeColor=none;opacity=0;" vertex="1" parent="1">
          <mxGeometry x="540" y="162.5" width="80" height="40" as="geometry" />
        </mxCell>
        <mxCell id="bG1ii8NIkGVzYORhIeiv-16" value="" style="rounded=0;whiteSpace=wrap;html=1;fillColor=#CCCCCC;" vertex="1" parent="1">
          <mxGeometry x="690" y="440" width="120" height="190" as="geometry" />
        </mxCell>
        <mxCell id="bG1ii8NIkGVzYORhIeiv-17" value="" style="image;sketch=0;aspect=fixed;html=1;points=[];align=center;fontSize=12;image=img/lib/mscae/Data_Lake.svg;" vertex="1" parent="1">
          <mxGeometry x="732" y="520" width="38" height="50" as="geometry" />
        </mxCell>
        <mxCell id="bG1ii8NIkGVzYORhIeiv-18" value="Data Lake Gen 2" style="whiteSpace=wrap;html=1;strokeColor=none;opacity=0;" vertex="1" parent="1">
          <mxGeometry x="711" y="570" width="80" height="40" as="geometry" />
        </mxCell>
        <mxCell id="bG1ii8NIkGVzYORhIeiv-19" value="Transform Data" style="whiteSpace=wrap;html=1;strokeColor=none;opacity=0;" vertex="1" parent="1">
          <mxGeometry x="710" y="449.5" width="80" height="40" as="geometry" />
        </mxCell>
        <mxCell id="bG1ii8NIkGVzYORhIeiv-21" value="" style="endArrow=classic;html=1;rounded=0;entryX=0.5;entryY=0;entryDx=0;entryDy=0;exitX=1;exitY=0.46;exitDx=0;exitDy=0;exitPerimeter=0;strokeColor=#999999;strokeWidth=3;" edge="1" parent="1" source="bG1ii8NIkGVzYORhIeiv-13" target="bG1ii8NIkGVzYORhIeiv-16">
          <mxGeometry width="50" height="50" relative="1" as="geometry">
            <mxPoint x="560" y="410" as="sourcePoint" />
            <mxPoint x="610" y="360" as="targetPoint" />
            <Array as="points">
              <mxPoint x="750" y="370" />
            </Array>
          </mxGeometry>
        </mxCell>
        <mxCell id="bG1ii8NIkGVzYORhIeiv-22" value="" style="rounded=0;whiteSpace=wrap;html=1;fillColor=#CCCCCC;" vertex="1" parent="1">
          <mxGeometry x="880" y="150.5" width="120" height="479.5" as="geometry" />
        </mxCell>
        <mxCell id="bG1ii8NIkGVzYORhIeiv-25" value="Analytic" style="whiteSpace=wrap;html=1;strokeColor=none;opacity=0;" vertex="1" parent="1">
          <mxGeometry x="900" y="162.5" width="80" height="40" as="geometry" />
        </mxCell>
        <mxCell id="bG1ii8NIkGVzYORhIeiv-26" value="" style="image;aspect=fixed;html=1;points=[];align=center;fontSize=12;image=img/lib/azure2/databases/Azure_Synapse_Analytics.svg;" vertex="1" parent="1">
          <mxGeometry x="910" y="330.5" width="60" height="69" as="geometry" />
        </mxCell>
        <mxCell id="bG1ii8NIkGVzYORhIeiv-27" value="Azure Synapse Analytic" style="whiteSpace=wrap;html=1;strokeColor=none;opacity=0;" vertex="1" parent="1">
          <mxGeometry x="900" y="409.5" width="80" height="40" as="geometry" />
        </mxCell>
        <mxCell id="bG1ii8NIkGVzYORhIeiv-29" value="Dashboard" style="whiteSpace=wrap;html=1;strokeColor=none;opacity=0;" vertex="1" parent="1">
          <mxGeometry x="1050" y="162.5" width="80" height="40" as="geometry" />
        </mxCell>
        <mxCell id="bG1ii8NIkGVzYORhIeiv-30" value="" style="image;aspect=fixed;html=1;points=[];align=center;fontSize=12;image=img/lib/azure2/power_platform/PowerBI.svg;" vertex="1" parent="1">
          <mxGeometry x="1064.5" y="330.5" width="51" height="68" as="geometry" />
        </mxCell>
        <mxCell id="bG1ii8NIkGVzYORhIeiv-31" value="Power BI" style="whiteSpace=wrap;html=1;strokeColor=none;opacity=0;" vertex="1" parent="1">
          <mxGeometry x="1050" y="414" width="80" height="40" as="geometry" />
        </mxCell>
        <mxCell id="bG1ii8NIkGVzYORhIeiv-32" value="" style="endArrow=classic;html=1;rounded=0;exitX=1;exitY=0.46;exitDx=0;exitDy=0;exitPerimeter=0;strokeColor=#999999;strokeWidth=3;entryX=0;entryY=0.5;entryDx=0;entryDy=0;" edge="1" parent="1" target="bG1ii8NIkGVzYORhIeiv-22">
          <mxGeometry width="50" height="50" relative="1" as="geometry">
            <mxPoint x="810" y="541" as="sourcePoint" />
            <mxPoint x="920" y="610" as="targetPoint" />
            <Array as="points">
              <mxPoint x="840" y="540" />
              <mxPoint x="840" y="480" />
              <mxPoint x="840" y="390" />
            </Array>
          </mxGeometry>
        </mxCell>
        <mxCell id="bG1ii8NIkGVzYORhIeiv-33" style="edgeStyle=orthogonalEdgeStyle;rounded=0;orthogonalLoop=1;jettySize=auto;html=1;strokeColor=#808080;strokeWidth=3;" edge="1" parent="1">
          <mxGeometry relative="1" as="geometry">
            <mxPoint x="1000" y="380" as="sourcePoint" />
            <mxPoint x="1030" y="380" as="targetPoint" />
          </mxGeometry>
        </mxCell>
      </root>
    </mxGraphModel>
  </diagram>
</mxfile>
